<svg xmlns="http://www.w3.org/2000/svg" xmlns:xlink="http://www.w3.org/1999/xlink" width="173px" height="25px" viewBox="0 0 173 25" version="1.1">
    <title>1341A2F8-5041-4FFD-A02B-3BF960A508A9@3x</title>
    <defs>
        <polygon id="path-1" points="0 0 24.988179 0 24.988179 24.9999401 0 24.9999401"/>
        <polygon id="path-3" points="0 25 172 25 172 0 0 0"/>
    </defs>
    <g id="Page-1" stroke="none" stroke-width="1" fill="none" fill-rule="evenodd">
        <g id="Homepage" transform="translate(-54.000000, -33.000000)">
            <g id="Logo" transform="translate(54.780879, 33.000000)">
                <g id="Group-3" transform="translate(0.000030, 0.000000)">
                    <mask id="mask-2" fill="white">
                        <use xlink:href="#path-1"/>
                    </mask>
                    <g id="Clip-2"/>
                    <path d="M24.988179,12.4999401 C24.988179,11.7355506 24.9193476,10.9870296 24.7876702,10.2603655 L22.0984588,12.2433471 C22.1008529,12.3286785 22.1017507,12.4143093 22.1017507,12.4999401 C22.1017507,17.8003665 17.7917103,22.1124458 12.4940895,22.1124458 C7.19616939,22.1124458 2.88612898,17.8003665 2.88612898,12.4999401 C2.88612898,7.19951376 7.19616939,2.88743443 12.4940895,2.88743443 C14.5018704,2.88743443 16.3674996,3.50720975 17.9108185,4.56501952 L20.3408649,2.77335984 C18.1960198,1.03918657 15.4667066,-5.98816738e-05 12.4940895,-5.98816738e-05 C5.59359569,-5.98816738e-05 0,5.59648135 0,12.4999401 C0,19.4036983 5.59359569,24.9999401 12.4940895,24.9999401 C19.3945833,24.9999401 24.988179,19.4036983 24.988179,12.4999401" id="Fill-1" fill="#333F48" mask="url(#mask-2)"/>
                </g>
                <path d="M22.3807272,4.85772114 C22.9711806,5.62091308 23.4751459,6.45356775 23.8782583,7.3425112 L12.4941493,15.7364248 L7.73790214,12.7531198 L7.73790214,9.16441112 L12.4941493,12.1477161 L22.3807272,4.85772114 Z" id="Fill-4" fill="#333F48"/>
                <path d="M39.2241209,11.1966155 C37.4943588,10.7885219 36.0007182,10.4361182 36.0007182,9.2295025 C36.0007182,7.61209849 37.9899446,7.43754341 38.8452491,7.43754341 C40.0312435,7.43754341 40.7057908,7.60102038 41.5889271,8.0022276 C42.0177764,7.68605236 43.9728864,6.24440106 43.9728864,6.24440106 C42.6839443,5.42312391 40.7482867,4.78089296 38.8664971,4.78089296 C34.3804878,4.78089296 32.7824031,7.16777647 32.7824031,9.40136291 C32.7824031,12.6182064 35.577555,13.2879829 38.0444112,13.8790151 C39.7768667,14.2942945 41.2732007,14.6526863 41.2732007,15.8784642 C41.2732007,16.5075211 40.8982194,17.5626362 38.3864731,17.5626362 C36.7192578,17.5626362 34.8928326,16.9772929 33.5961095,16.0305636 L32.5061799,18.5252341 C33.8274428,19.5554983 36.1186294,20.2192867 38.3658237,20.2192867 C42.0869071,20.2192867 44.4915158,18.4141536 44.4915158,15.6203741 C44.4915158,12.4388608 41.693072,11.7789648 39.2241209,11.1966155" id="Fill-6" fill="#333F48"/>
                <path d="M54.7193775,17.4765863 L50.7062098,17.4765863 L50.7062098,13.6564349 L54.7193775,13.6564349 C56.5517881,13.6564349 57.4810115,14.2920789 57.4810115,15.5666603 C57.4810115,16.8445352 56.5778243,17.4765863 54.7193775,17.4765863 L54.7193775,17.4765863 Z M50.7062098,11.1716448 L54.135508,11.1716448 L50.7062098,11.1716448 Z M50.7062098,7.52365326 L54.135508,7.52365326 C56.2968128,7.52365326 56.7508005,8.52038372 56.7508005,9.34794845 C56.7508005,10.5479772 55.8464163,11.1716448 54.135508,11.1716448 L50.7062098,11.1716448 L50.7062098,7.52365326 Z M58.1187491,12.265683 L57.9646267,12.2144842 L58.1073769,12.1372368 C59.3349693,11.4707538 60.011013,10.3156363 60.011013,8.88506312 C60.011013,6.4769216 57.9703127,5.03916261 54.5523867,5.03916261 L47.4878947,5.03916261 L47.4878947,19.9610769 L54.9698638,19.9610769 C58.6912464,19.9610769 60.7409247,18.5266114 60.7409247,15.9214592 C60.7409247,14.1489617 59.7853659,12.8165944 58.1187491,12.265683 L58.1187491,12.265683 Z" id="Fill-8" fill="#333F48"/>
                <polygon id="Fill-10" fill="#333F48" points="71.64489 7.52359338 75.0146341 5.03910273 63.7373635 5.03910273 63.7373635 19.9613164 75.0146341 19.9613164 75.0146341 17.4765264 66.9556786 17.4765264 66.9556786 13.656375 73.8298369 13.656375 73.8298369 11.1718844 66.9556786 11.1718844 66.9556786 7.52359338"/>
                <path d="M81.2293281,7.52359338 L84.0819392,7.52359338 C86.1441867,7.52359338 87.279605,8.5403842 87.279605,10.3868356 C87.279605,12.2329876 86.1441867,13.2497784 84.0819392,13.2497784 L81.2293281,13.2497784 L81.2293281,7.52359338 Z M90.7319467,19.9613164 L87.4558731,15.1132961 C89.3885381,14.2695633 90.5027084,12.6072481 90.5027084,10.3793504 C90.5027084,7.08555894 88.0687715,5.03940214 84.1510699,5.03940214 L78.011013,5.03940214 L78.011013,19.9613164 L81.2293281,19.9613164 L81.2293281,15.7342691 L84.1510699,15.7342691 C84.2426455,15.7342691 84.3327248,15.7321732 84.4228041,15.729778 L87.2825976,19.9613164 L90.7319467,19.9613164 Z" id="Fill-12" fill="#333F48"/>
                <polygon id="Fill-14" fill="#263498" points="112.501242 8.71697526 107.673171 16.7030947 106.321682 16.7030947 101.386174 8.82416345 101.386174 20.0091619 98.7038456 20.0091619 98.7038456 4.98155644 102.094538 4.98155644 107.072542 13.1607943 112.00805 4.98155644 115.18357 4.98155644 115.18357 20.0091619 112.501242 20.0091619"/>
                <polygon id="Fill-16" fill="#263498" points="128.464971 13.5043055 121.555499 13.5043055 121.555499 17.5403303 129.494748 17.5403303 129.494748 20.0092517 118.87347 20.0092517 118.87347 4.98164627 129.258926 4.98164627 129.258926 7.45026827 121.555499 7.45026827 121.555499 11.0353841 128.464971 11.0353841"/>
                <path d="M137.58384,17.5403303 C141.295945,17.5403303 143.098429,15.7154363 143.098429,12.4524839 C143.098429,9.10330188 141.403382,7.45026827 137.605088,7.45026827 L135.158881,7.45026827 L135.158881,17.5403303 L137.58384,17.5403303 Z M137.648182,4.98164627 C143.205866,4.98164627 145.909442,7.57901387 145.909442,12.1946933 C145.909442,17.6906333 142.476253,20.0092517 137.58384,20.0092517 L132.477151,20.0092517 L132.477151,4.98164627 L137.648182,4.98164627 Z" id="Fill-18" fill="#263498"/>
                <path d="M162.13045,13.9766521 L159.662996,7.81542672 L157.195242,13.9766521 L162.13045,13.9766521 Z M167.409217,20.009132 L164.555409,20.009132 L163.117732,16.4455735 L156.229508,16.4455735 L154.813377,20.009132 L152.088254,20.009132 L158.182523,4.9815265 L161.229059,4.9815265 L167.409217,20.009132 Z" id="Fill-20" fill="#263498"/>
                <mask id="mask-4" fill="white">
                    <use xlink:href="#path-3"/>
                </mask>
                <g id="Clip-23"/>
                <polygon id="Fill-22" fill="#263498" mask="url(#mask-4)" points="169.317672 20.0091619 172 20.0091619 172 4.98155644 169.317672 4.98155644"/>
            </g>
        </g>
    </g>
</svg>